<mxfile host="app.diagrams.net" modified="2022-04-28T15:22:27.409Z" agent="5.0 (Windows NT 10.0; Win64; x64) AppleWebKit/537.36 (KHTML, like Gecko) Chrome/101.0.4951.41 Safari/537.36" etag="eFnYxV-PUFy8LSfeih5F" version="17.4.6" type="github">
  <diagram name="Page-1" id="03018318-947c-dd8e-b7a3-06fadd420f32">
    <mxGraphModel dx="4096" dy="979" grid="1" gridSize="10" guides="1" tooltips="1" connect="1" arrows="1" fold="1" page="1" pageScale="1" pageWidth="1100" pageHeight="850" background="none" math="0" shadow="0">
      <root>
        <mxCell id="0" />
        <mxCell id="1" parent="0" />
        <mxCell id="bsHtGkAG1uyYWepguyDH-8" value="" style="dashed=0;align=center;fontSize=12;shape=rect;fillColor=#ffffff;strokeColor=none;" parent="1" vertex="1">
          <mxGeometry x="-360" y="460" width="430" height="700" as="geometry" />
        </mxCell>
        <mxCell id="bsHtGkAG1uyYWepguyDH-9" value="12:30" style="dashed=0;align=center;fontSize=12;shape=rect;align=right;fillColor=#0973AE;strokeColor=none;fontColor=#FFFFFF;spacingRight=4;spacingTop=1;fontStyle=0;fontSize=13;resizeWidth=1;" parent="bsHtGkAG1uyYWepguyDH-8" vertex="1">
          <mxGeometry width="430" height="24" relative="1" as="geometry" />
        </mxCell>
        <mxCell id="bsHtGkAG1uyYWepguyDH-10" value="" style="dashed=0;html=1;shape=mxgraph.gmdl.top_bar;fillColor=#0973AE;strokeColor=none;" parent="bsHtGkAG1uyYWepguyDH-9" vertex="1">
          <mxGeometry x="1" y="0.5" width="46" height="14" relative="1" as="geometry">
            <mxPoint x="-92" y="-7" as="offset" />
          </mxGeometry>
        </mxCell>
        <mxCell id="bsHtGkAG1uyYWepguyDH-11" value="" style="dashed=0;align=center;fontSize=12;shape=rect;strokeColor=none;fillColor=#098DCA;resizeWidth=1;" parent="bsHtGkAG1uyYWepguyDH-8" vertex="1">
          <mxGeometry width="430" height="60" relative="1" as="geometry">
            <mxPoint y="24" as="offset" />
          </mxGeometry>
        </mxCell>
        <mxCell id="bsHtGkAG1uyYWepguyDH-25" value="" style="dashed=0;align=center;fontSize=12;shape=rect;strokeColor=none;fillColor=#000000;resizeWidth=1;" parent="bsHtGkAG1uyYWepguyDH-8" vertex="1">
          <mxGeometry y="1" width="430" height="48" relative="1" as="geometry">
            <mxPoint y="-48" as="offset" />
          </mxGeometry>
        </mxCell>
        <mxCell id="bsHtGkAG1uyYWepguyDH-26" value="" style="dashed=0;html=1;shape=mxgraph.gmdl.back;strokeColor=#ffffff;fillColor=#000000;strokeWidth=2;" parent="bsHtGkAG1uyYWepguyDH-25" vertex="1">
          <mxGeometry x="0.25" y="0.5" width="14" height="14" relative="1" as="geometry">
            <mxPoint x="-7" y="-7" as="offset" />
          </mxGeometry>
        </mxCell>
        <mxCell id="bsHtGkAG1uyYWepguyDH-27" value="" style="shape=ellipse;strokeColor=#ffffff;fillColor=#000000;strokeWidth=2;" parent="bsHtGkAG1uyYWepguyDH-25" vertex="1">
          <mxGeometry x="0.5" y="0.5" width="14" height="14" relative="1" as="geometry">
            <mxPoint x="-7" y="-7" as="offset" />
          </mxGeometry>
        </mxCell>
        <mxCell id="bsHtGkAG1uyYWepguyDH-28" value="" style="shape=rect;strokeColor=#ffffff;fillColor=#000000;strokeWidth=2;" parent="bsHtGkAG1uyYWepguyDH-25" vertex="1">
          <mxGeometry x="0.75" y="0.5" width="14" height="14" relative="1" as="geometry">
            <mxPoint x="-7" y="-7" as="offset" />
          </mxGeometry>
        </mxCell>
        <mxCell id="bsHtGkAG1uyYWepguyDH-351" value="" style="sketch=0;outlineConnect=0;fontColor=#232F3E;gradientColor=none;fillColor=#D45B07;strokeColor=none;dashed=0;verticalLabelPosition=bottom;verticalAlign=top;align=center;html=1;fontSize=12;fontStyle=0;aspect=fixed;pointerEvents=1;shape=mxgraph.aws4.container_registry_image;" parent="bsHtGkAG1uyYWepguyDH-8" vertex="1">
          <mxGeometry x="132.12290502793297" y="152.6479750778816" width="138" height="138" as="geometry" />
        </mxCell>
        <mxCell id="bsHtGkAG1uyYWepguyDH-647" value="NFT SHOP" style="text;strokeColor=none;fillColor=none;html=1;fontSize=24;fontStyle=1;verticalAlign=middle;align=center;" parent="bsHtGkAG1uyYWepguyDH-8" vertex="1">
          <mxGeometry x="141.40333333333308" y="29.997196261682177" width="119.44444444444444" height="43.613707165109034" as="geometry" />
        </mxCell>
        <mxCell id="bsHtGkAG1uyYWepguyDH-277" value="" style="dashed=0;align=center;fontSize=12;shape=rect;fillColor=#ffffff;strokeColor=none;aspect=fixed;" parent="1" vertex="1">
          <mxGeometry x="1160" y="460" width="430" height="700" as="geometry" />
        </mxCell>
        <mxCell id="bsHtGkAG1uyYWepguyDH-420" value="" style="dashed=0;shape=rect;fillColor=#ffffff;strokeColor=none;" parent="bsHtGkAG1uyYWepguyDH-277" vertex="1">
          <mxGeometry x="33.001666666666665" y="239.34579439252335" width="132.58333333333334" height="30.52959501557632" as="geometry" />
        </mxCell>
        <mxCell id="bsHtGkAG1uyYWepguyDH-396" value="" style="dashed=0;shape=rect;fillColor=#ffffff;strokeColor=none;" parent="bsHtGkAG1uyYWepguyDH-277" vertex="1">
          <mxGeometry x="194.8488888888889" y="239.34579439252335" width="132.58333333333334" height="30.52959501557632" as="geometry" />
        </mxCell>
        <mxCell id="bsHtGkAG1uyYWepguyDH-515" value="" style="shape=rect;fillColor=#BDBDBD;strokeColor=#BDBDBD;shadow=1;sketch=0;rounded=1;" parent="bsHtGkAG1uyYWepguyDH-277" vertex="1">
          <mxGeometry x="10" y="70" width="410" height="620" as="geometry" />
        </mxCell>
        <mxCell id="bsHtGkAG1uyYWepguyDH-517" value="Shop Window" style="rounded=1;align=center;fillColor=#F1F2F4;strokeColor=none;html=1;fontColor=#A5ADBA;fontSize=12;shadow=1;sketch=0;" parent="bsHtGkAG1uyYWepguyDH-515" vertex="1">
          <mxGeometry x="149.23" y="-6.4138235108862265" width="111.54" height="34.36561758592455" as="geometry" />
        </mxCell>
        <mxCell id="bsHtGkAG1uyYWepguyDH-518" value="Shop" style="rounded=1;html=1;shadow=0;dashed=0;whiteSpace=wrap;fontSize=35;fillColor=#E6E6E6;align=center;strokeColor=#E6E6E6;fontColor=#333333;sketch=0;" parent="bsHtGkAG1uyYWepguyDH-515" vertex="1">
          <mxGeometry x="95" y="437.0480758996401" width="220" height="91.12095572025449" as="geometry" />
        </mxCell>
        <mxCell id="bsHtGkAG1uyYWepguyDH-412" value="" style="shape=rect;fillColor=#eeeeee;strokeColor=none;sketch=0;aspect=fixed;" parent="bsHtGkAG1uyYWepguyDH-277" vertex="1">
          <mxGeometry x="22.46" y="110" width="121" height="180" as="geometry" />
        </mxCell>
        <mxCell id="bsHtGkAG1uyYWepguyDH-413" value="" style="sketch=0;outlineConnect=0;fontColor=#232F3E;gradientColor=none;fillColor=#D45B07;strokeColor=none;dashed=0;verticalLabelPosition=bottom;verticalAlign=top;align=center;html=1;fontSize=12;fontStyle=0;aspect=fixed;pointerEvents=1;shape=mxgraph.aws4.container_registry_image;" parent="bsHtGkAG1uyYWepguyDH-277" vertex="1">
          <mxGeometry x="42.96" y="121" width="80" height="80" as="geometry" />
        </mxCell>
        <mxCell id="bsHtGkAG1uyYWepguyDH-414" value="" style="dashed=0;shape=rect;fillColor=#ffffff;strokeColor=none;sketch=0;aspect=fixed;" parent="bsHtGkAG1uyYWepguyDH-277" vertex="1">
          <mxGeometry x="27.46" y="212" width="111" height="28" as="geometry" />
        </mxCell>
        <mxCell id="bsHtGkAG1uyYWepguyDH-415" value="Heist" style="text;strokeColor=none;fillColor=none;html=1;fontSize=24;fontStyle=1;verticalAlign=middle;align=center;sketch=0;aspect=fixed;" parent="bsHtGkAG1uyYWepguyDH-277" vertex="1">
          <mxGeometry x="18.96" y="217" width="100" height="18" as="geometry" />
        </mxCell>
        <mxCell id="bsHtGkAG1uyYWepguyDH-416" value="1000" style="rounded=1;html=1;shadow=0;dashed=0;whiteSpace=wrap;fontSize=10;fillColor=#f5f5f5;align=center;strokeColor=#666666;fontColor=#333333;spacingLeft=17;sketch=0;aspect=fixed;" parent="bsHtGkAG1uyYWepguyDH-277" vertex="1">
          <mxGeometry x="33.96" y="250.39" width="95" height="27.44" as="geometry" />
        </mxCell>
        <mxCell id="bsHtGkAG1uyYWepguyDH-417" value="" style="shape=image;html=1;verticalAlign=top;verticalLabelPosition=bottom;labelBackgroundColor=#ffffff;imageAspect=0;aspect=fixed;image=https://cdn0.iconfinder.com/data/icons/heroicons-ui/24/icon-currency-dollar-128.png;sketch=0;" parent="bsHtGkAG1uyYWepguyDH-277" vertex="1">
          <mxGeometry x="33.96" y="250.39" width="28.22" height="28.22" as="geometry" />
        </mxCell>
        <mxCell id="bsHtGkAG1uyYWepguyDH-424" value="" style="shape=rect;fillColor=#eeeeee;strokeColor=none;sketch=0;aspect=fixed;" parent="bsHtGkAG1uyYWepguyDH-277" vertex="1">
          <mxGeometry x="156.53999999999994" y="110" width="121" height="180" as="geometry" />
        </mxCell>
        <mxCell id="bsHtGkAG1uyYWepguyDH-425" value="" style="sketch=0;outlineConnect=0;fontColor=#232F3E;gradientColor=none;fillColor=#D45B07;strokeColor=none;dashed=0;verticalLabelPosition=bottom;verticalAlign=top;align=center;html=1;fontSize=12;fontStyle=0;aspect=fixed;pointerEvents=1;shape=mxgraph.aws4.container_registry_image;" parent="bsHtGkAG1uyYWepguyDH-277" vertex="1">
          <mxGeometry x="177.03999999999994" y="121" width="80" height="80" as="geometry" />
        </mxCell>
        <mxCell id="bsHtGkAG1uyYWepguyDH-426" value="" style="dashed=0;shape=rect;fillColor=#ffffff;strokeColor=none;sketch=0;aspect=fixed;" parent="bsHtGkAG1uyYWepguyDH-277" vertex="1">
          <mxGeometry x="161.53999999999994" y="212" width="111" height="28" as="geometry" />
        </mxCell>
        <mxCell id="bsHtGkAG1uyYWepguyDH-427" value="Heist" style="text;strokeColor=none;fillColor=none;html=1;fontSize=24;fontStyle=1;verticalAlign=middle;align=center;sketch=0;aspect=fixed;" parent="bsHtGkAG1uyYWepguyDH-277" vertex="1">
          <mxGeometry x="153.03999999999994" y="217" width="100" height="18" as="geometry" />
        </mxCell>
        <mxCell id="bsHtGkAG1uyYWepguyDH-428" value="1000" style="rounded=1;html=1;shadow=0;dashed=0;whiteSpace=wrap;fontSize=10;fillColor=#f5f5f5;align=center;strokeColor=#666666;fontColor=#333333;spacingLeft=17;sketch=0;aspect=fixed;" parent="bsHtGkAG1uyYWepguyDH-277" vertex="1">
          <mxGeometry x="168.03999999999994" y="250.39" width="95" height="27.44" as="geometry" />
        </mxCell>
        <mxCell id="bsHtGkAG1uyYWepguyDH-429" value="" style="shape=image;html=1;verticalAlign=top;verticalLabelPosition=bottom;labelBackgroundColor=#ffffff;imageAspect=0;aspect=fixed;image=https://cdn0.iconfinder.com/data/icons/heroicons-ui/24/icon-currency-dollar-128.png;sketch=0;" parent="bsHtGkAG1uyYWepguyDH-277" vertex="1">
          <mxGeometry x="168.03999999999994" y="250.39" width="28.22" height="28.22" as="geometry" />
        </mxCell>
        <mxCell id="bsHtGkAG1uyYWepguyDH-436" value="" style="shape=rect;fillColor=#eeeeee;strokeColor=none;sketch=0;aspect=fixed;" parent="bsHtGkAG1uyYWepguyDH-277" vertex="1">
          <mxGeometry x="290.0399999999999" y="110" width="121" height="180" as="geometry" />
        </mxCell>
        <mxCell id="bsHtGkAG1uyYWepguyDH-437" value="" style="sketch=0;outlineConnect=0;fontColor=#232F3E;gradientColor=none;fillColor=#D45B07;strokeColor=none;dashed=0;verticalLabelPosition=bottom;verticalAlign=top;align=center;html=1;fontSize=12;fontStyle=0;aspect=fixed;pointerEvents=1;shape=mxgraph.aws4.container_registry_image;" parent="bsHtGkAG1uyYWepguyDH-277" vertex="1">
          <mxGeometry x="310.5399999999999" y="121" width="80" height="80" as="geometry" />
        </mxCell>
        <mxCell id="bsHtGkAG1uyYWepguyDH-438" value="" style="dashed=0;shape=rect;fillColor=#ffffff;strokeColor=none;sketch=0;aspect=fixed;" parent="bsHtGkAG1uyYWepguyDH-277" vertex="1">
          <mxGeometry x="295.0399999999999" y="212" width="111" height="28" as="geometry" />
        </mxCell>
        <mxCell id="bsHtGkAG1uyYWepguyDH-439" value="Heist" style="text;strokeColor=none;fillColor=none;html=1;fontSize=24;fontStyle=1;verticalAlign=middle;align=center;sketch=0;aspect=fixed;" parent="bsHtGkAG1uyYWepguyDH-277" vertex="1">
          <mxGeometry x="286.5399999999999" y="217" width="100" height="18" as="geometry" />
        </mxCell>
        <mxCell id="bsHtGkAG1uyYWepguyDH-440" value="1000" style="rounded=1;html=1;shadow=0;dashed=0;whiteSpace=wrap;fontSize=10;fillColor=#f5f5f5;align=center;strokeColor=#666666;fontColor=#333333;spacingLeft=17;sketch=0;aspect=fixed;" parent="bsHtGkAG1uyYWepguyDH-277" vertex="1">
          <mxGeometry x="301.5399999999999" y="250.39" width="95" height="27.44" as="geometry" />
        </mxCell>
        <mxCell id="bsHtGkAG1uyYWepguyDH-441" value="" style="shape=image;html=1;verticalAlign=top;verticalLabelPosition=bottom;labelBackgroundColor=#ffffff;imageAspect=0;aspect=fixed;image=https://cdn0.iconfinder.com/data/icons/heroicons-ui/24/icon-currency-dollar-128.png;sketch=0;" parent="bsHtGkAG1uyYWepguyDH-277" vertex="1">
          <mxGeometry x="301.5399999999999" y="250.39" width="28.22" height="28.22" as="geometry" />
        </mxCell>
        <mxCell id="bsHtGkAG1uyYWepguyDH-466" value="" style="shape=rect;fillColor=#eeeeee;strokeColor=none;sketch=0;aspect=fixed;" parent="bsHtGkAG1uyYWepguyDH-277" vertex="1">
          <mxGeometry x="22.46" y="300" width="121" height="180" as="geometry" />
        </mxCell>
        <mxCell id="bsHtGkAG1uyYWepguyDH-467" value="" style="sketch=0;outlineConnect=0;fontColor=#232F3E;gradientColor=none;fillColor=#D45B07;strokeColor=none;dashed=0;verticalLabelPosition=bottom;verticalAlign=top;align=center;html=1;fontSize=12;fontStyle=0;aspect=fixed;pointerEvents=1;shape=mxgraph.aws4.container_registry_image;" parent="bsHtGkAG1uyYWepguyDH-277" vertex="1">
          <mxGeometry x="42.96" y="311" width="80" height="80" as="geometry" />
        </mxCell>
        <mxCell id="bsHtGkAG1uyYWepguyDH-468" value="" style="dashed=0;shape=rect;fillColor=#ffffff;strokeColor=none;sketch=0;aspect=fixed;" parent="bsHtGkAG1uyYWepguyDH-277" vertex="1">
          <mxGeometry x="27.46" y="402" width="111" height="28" as="geometry" />
        </mxCell>
        <mxCell id="bsHtGkAG1uyYWepguyDH-469" value="Heist" style="text;strokeColor=none;fillColor=none;html=1;fontSize=24;fontStyle=1;verticalAlign=middle;align=center;sketch=0;aspect=fixed;" parent="bsHtGkAG1uyYWepguyDH-277" vertex="1">
          <mxGeometry x="18.96" y="407" width="100" height="18" as="geometry" />
        </mxCell>
        <mxCell id="bsHtGkAG1uyYWepguyDH-470" value="1000" style="rounded=1;html=1;shadow=0;dashed=0;whiteSpace=wrap;fontSize=10;fillColor=#f5f5f5;align=center;strokeColor=#666666;fontColor=#333333;spacingLeft=17;sketch=0;aspect=fixed;" parent="bsHtGkAG1uyYWepguyDH-277" vertex="1">
          <mxGeometry x="33.96" y="440.39" width="95" height="27.44" as="geometry" />
        </mxCell>
        <mxCell id="bsHtGkAG1uyYWepguyDH-471" value="" style="shape=image;html=1;verticalAlign=top;verticalLabelPosition=bottom;labelBackgroundColor=#ffffff;imageAspect=0;aspect=fixed;image=https://cdn0.iconfinder.com/data/icons/heroicons-ui/24/icon-currency-dollar-128.png;sketch=0;" parent="bsHtGkAG1uyYWepguyDH-277" vertex="1">
          <mxGeometry x="33.96" y="440.39" width="28.22" height="28.22" as="geometry" />
        </mxCell>
        <mxCell id="bsHtGkAG1uyYWepguyDH-472" value="" style="shape=rect;fillColor=#eeeeee;strokeColor=none;sketch=0;aspect=fixed;" parent="bsHtGkAG1uyYWepguyDH-277" vertex="1">
          <mxGeometry x="158.28999999999994" y="300" width="121" height="180" as="geometry" />
        </mxCell>
        <mxCell id="bsHtGkAG1uyYWepguyDH-473" value="" style="sketch=0;outlineConnect=0;fontColor=#232F3E;gradientColor=none;fillColor=#D45B07;strokeColor=none;dashed=0;verticalLabelPosition=bottom;verticalAlign=top;align=center;html=1;fontSize=12;fontStyle=0;aspect=fixed;pointerEvents=1;shape=mxgraph.aws4.container_registry_image;" parent="bsHtGkAG1uyYWepguyDH-277" vertex="1">
          <mxGeometry x="178.78999999999994" y="311" width="80" height="80" as="geometry" />
        </mxCell>
        <mxCell id="bsHtGkAG1uyYWepguyDH-474" value="" style="dashed=0;shape=rect;fillColor=#ffffff;strokeColor=none;sketch=0;aspect=fixed;" parent="bsHtGkAG1uyYWepguyDH-277" vertex="1">
          <mxGeometry x="163.28999999999994" y="402" width="111" height="28" as="geometry" />
        </mxCell>
        <mxCell id="bsHtGkAG1uyYWepguyDH-475" value="Heist" style="text;strokeColor=none;fillColor=none;html=1;fontSize=24;fontStyle=1;verticalAlign=middle;align=center;sketch=0;aspect=fixed;" parent="bsHtGkAG1uyYWepguyDH-277" vertex="1">
          <mxGeometry x="154.78999999999994" y="407" width="100" height="18" as="geometry" />
        </mxCell>
        <mxCell id="bsHtGkAG1uyYWepguyDH-476" value="1000" style="rounded=1;html=1;shadow=0;dashed=0;whiteSpace=wrap;fontSize=10;fillColor=#f5f5f5;align=center;strokeColor=#666666;fontColor=#333333;spacingLeft=17;sketch=0;aspect=fixed;" parent="bsHtGkAG1uyYWepguyDH-277" vertex="1">
          <mxGeometry x="169.78999999999994" y="440.39" width="95" height="27.44" as="geometry" />
        </mxCell>
        <mxCell id="bsHtGkAG1uyYWepguyDH-477" value="" style="shape=image;html=1;verticalAlign=top;verticalLabelPosition=bottom;labelBackgroundColor=#ffffff;imageAspect=0;aspect=fixed;image=https://cdn0.iconfinder.com/data/icons/heroicons-ui/24/icon-currency-dollar-128.png;sketch=0;" parent="bsHtGkAG1uyYWepguyDH-277" vertex="1">
          <mxGeometry x="169.78999999999994" y="440.39" width="28.22" height="28.22" as="geometry" />
        </mxCell>
        <mxCell id="bsHtGkAG1uyYWepguyDH-478" value="" style="shape=rect;fillColor=#eeeeee;strokeColor=none;sketch=0;aspect=fixed;" parent="bsHtGkAG1uyYWepguyDH-277" vertex="1">
          <mxGeometry x="290.0399999999999" y="300" width="121" height="180" as="geometry" />
        </mxCell>
        <mxCell id="bsHtGkAG1uyYWepguyDH-479" value="" style="sketch=0;outlineConnect=0;fontColor=#232F3E;gradientColor=none;fillColor=#D45B07;strokeColor=none;dashed=0;verticalLabelPosition=bottom;verticalAlign=top;align=center;html=1;fontSize=12;fontStyle=0;aspect=fixed;pointerEvents=1;shape=mxgraph.aws4.container_registry_image;" parent="bsHtGkAG1uyYWepguyDH-277" vertex="1">
          <mxGeometry x="310.5399999999999" y="311" width="80" height="80" as="geometry" />
        </mxCell>
        <mxCell id="bsHtGkAG1uyYWepguyDH-480" value="" style="dashed=0;shape=rect;fillColor=#ffffff;strokeColor=none;sketch=0;aspect=fixed;" parent="bsHtGkAG1uyYWepguyDH-277" vertex="1">
          <mxGeometry x="295.0399999999999" y="402" width="111" height="28" as="geometry" />
        </mxCell>
        <mxCell id="bsHtGkAG1uyYWepguyDH-481" value="Heist" style="text;strokeColor=none;fillColor=none;html=1;fontSize=24;fontStyle=1;verticalAlign=middle;align=center;sketch=0;aspect=fixed;" parent="bsHtGkAG1uyYWepguyDH-277" vertex="1">
          <mxGeometry x="286.5399999999999" y="407" width="100" height="18" as="geometry" />
        </mxCell>
        <mxCell id="bsHtGkAG1uyYWepguyDH-482" value="1000" style="rounded=1;html=1;shadow=0;dashed=0;whiteSpace=wrap;fontSize=10;fillColor=#f5f5f5;align=center;strokeColor=#666666;fontColor=#333333;spacingLeft=17;sketch=0;aspect=fixed;" parent="bsHtGkAG1uyYWepguyDH-277" vertex="1">
          <mxGeometry x="301.5399999999999" y="440.39" width="95" height="27.44" as="geometry" />
        </mxCell>
        <mxCell id="bsHtGkAG1uyYWepguyDH-483" value="" style="shape=image;html=1;verticalAlign=top;verticalLabelPosition=bottom;labelBackgroundColor=#ffffff;imageAspect=0;aspect=fixed;image=https://cdn0.iconfinder.com/data/icons/heroicons-ui/24/icon-currency-dollar-128.png;sketch=0;" parent="bsHtGkAG1uyYWepguyDH-277" vertex="1">
          <mxGeometry x="301.5399999999999" y="440.39" width="28.22" height="28.22" as="geometry" />
        </mxCell>
        <mxCell id="bsHtGkAG1uyYWepguyDH-516" value="Copiright by PietroAlex &amp; Alexdib_creator" style="shape=rect;strokeColor=none;whiteSpace=wrap;align=left;spacingLeft=16;fontColor=#666666;fontSize=14;sketch=0;" parent="bsHtGkAG1uyYWepguyDH-277" vertex="1">
          <mxGeometry y="633" width="430" height="17.39" as="geometry" />
        </mxCell>
        <mxCell id="bsHtGkAG1uyYWepguyDH-281" value="" style="dashed=0;align=center;fontSize=12;shape=rect;strokeColor=none;fillColor=#000000;resizeWidth=1;" parent="bsHtGkAG1uyYWepguyDH-277" vertex="1">
          <mxGeometry y="1" width="427.6111111111111" height="48" relative="1" as="geometry">
            <mxPoint y="-48" as="offset" />
          </mxGeometry>
        </mxCell>
        <mxCell id="bsHtGkAG1uyYWepguyDH-282" value="" style="dashed=0;html=1;shape=mxgraph.gmdl.back;strokeColor=#ffffff;fillColor=#000000;strokeWidth=2;" parent="bsHtGkAG1uyYWepguyDH-281" vertex="1">
          <mxGeometry x="0.25" y="0.5" width="14" height="14" relative="1" as="geometry">
            <mxPoint x="-7" y="-7" as="offset" />
          </mxGeometry>
        </mxCell>
        <mxCell id="bsHtGkAG1uyYWepguyDH-283" value="" style="shape=ellipse;strokeColor=#ffffff;fillColor=#000000;strokeWidth=2;" parent="bsHtGkAG1uyYWepguyDH-281" vertex="1">
          <mxGeometry x="0.5" y="0.5" width="14" height="14" relative="1" as="geometry">
            <mxPoint x="-7" y="-7" as="offset" />
          </mxGeometry>
        </mxCell>
        <mxCell id="bsHtGkAG1uyYWepguyDH-284" value="" style="shape=rect;strokeColor=#ffffff;fillColor=#000000;strokeWidth=2;" parent="bsHtGkAG1uyYWepguyDH-281" vertex="1">
          <mxGeometry x="0.75" y="0.5" width="14" height="14" relative="1" as="geometry">
            <mxPoint x="-7" y="-7" as="offset" />
          </mxGeometry>
        </mxCell>
        <mxCell id="bsHtGkAG1uyYWepguyDH-637" value="12:30" style="dashed=0;align=center;fontSize=12;shape=rect;align=right;fillColor=#0973AE;strokeColor=none;fontColor=#FFFFFF;spacingRight=4;spacingTop=1;fontStyle=0;fontSize=13;resizeWidth=1;" parent="bsHtGkAG1uyYWepguyDH-277" vertex="1">
          <mxGeometry width="430" height="24" as="geometry" />
        </mxCell>
        <mxCell id="bsHtGkAG1uyYWepguyDH-638" value="" style="dashed=0;html=1;shape=mxgraph.gmdl.top_bar;fillColor=#0973AE;strokeColor=none;" parent="bsHtGkAG1uyYWepguyDH-637" vertex="1">
          <mxGeometry x="1" y="0.5" width="46" height="14" relative="1" as="geometry">
            <mxPoint x="-92" y="-7" as="offset" />
          </mxGeometry>
        </mxCell>
        <mxCell id="bsHtGkAG1uyYWepguyDH-639" value="" style="dashed=0;align=center;fontSize=12;shape=rect;strokeColor=none;fillColor=#098DCA;resizeWidth=1;aspect=fixed;" parent="bsHtGkAG1uyYWepguyDH-277" vertex="1">
          <mxGeometry y="20" width="430" height="40" as="geometry" />
        </mxCell>
        <mxCell id="bsHtGkAG1uyYWepguyDH-640" value="" style="shape=image;html=1;verticalAlign=top;verticalLabelPosition=bottom;labelBackgroundColor=#ffffff;imageAspect=0;image=https://cdn1.iconfinder.com/data/icons/material-core/18/menu-128.png" parent="bsHtGkAG1uyYWepguyDH-277" vertex="1">
          <mxGeometry x="10.000000000000055" y="25.8599999999999" width="28.06" height="28.19" as="geometry" />
        </mxCell>
        <mxCell id="bsHtGkAG1uyYWepguyDH-641" value="1000" style="rounded=1;html=1;shadow=0;dashed=0;whiteSpace=wrap;fontSize=10;fillColor=#E6E6E6;align=center;strokeColor=#B3B3B3;fontColor=#333333;spacingLeft=17;aspect=fixed;" parent="bsHtGkAG1uyYWepguyDH-277" vertex="1">
          <mxGeometry x="334.4444444444444" y="24.13339563862928" width="83.61111111111111" height="29.919003115264797" as="geometry" />
        </mxCell>
        <mxCell id="bsHtGkAG1uyYWepguyDH-642" value="" style="shape=image;html=1;verticalAlign=top;verticalLabelPosition=bottom;labelBackgroundColor=#ffffff;imageAspect=0;aspect=fixed;image=https://cdn0.iconfinder.com/data/icons/heroicons-ui/24/icon-currency-dollar-128.png" parent="bsHtGkAG1uyYWepguyDH-277" vertex="1">
          <mxGeometry x="334.4444444444444" y="23.7129283489096" width="30.76947040498442" height="30.76947040498442" as="geometry" />
        </mxCell>
        <mxCell id="bsHtGkAG1uyYWepguyDH-643" value="NFT SHOP" style="text;strokeColor=none;fillColor=none;html=1;fontSize=24;fontStyle=1;verticalAlign=middle;align=center;" parent="bsHtGkAG1uyYWepguyDH-277" vertex="1">
          <mxGeometry x="154.62333333333302" y="16.387196261682167" width="119.44444444444444" height="43.613707165109034" as="geometry" />
        </mxCell>
        <mxCell id="bsHtGkAG1uyYWepguyDH-293" value="" style="dashed=0;align=center;fontSize=12;shape=rect;fillColor=#ffffff;strokeColor=none;" parent="1" vertex="1">
          <mxGeometry x="140" y="460" width="430" height="700" as="geometry" />
        </mxCell>
        <mxCell id="bsHtGkAG1uyYWepguyDH-294" value="12:30" style="dashed=0;align=center;fontSize=12;shape=rect;align=right;fillColor=#0973AE;strokeColor=none;fontColor=#FFFFFF;spacingRight=4;spacingTop=1;fontStyle=0;fontSize=13;resizeWidth=1;" parent="bsHtGkAG1uyYWepguyDH-293" vertex="1">
          <mxGeometry width="430" height="24" relative="1" as="geometry" />
        </mxCell>
        <mxCell id="bsHtGkAG1uyYWepguyDH-295" value="" style="dashed=0;html=1;shape=mxgraph.gmdl.top_bar;fillColor=#0973AE;strokeColor=none;" parent="bsHtGkAG1uyYWepguyDH-294" vertex="1">
          <mxGeometry x="1" y="0.5" width="46" height="14" relative="1" as="geometry">
            <mxPoint x="-92" y="-7" as="offset" />
          </mxGeometry>
        </mxCell>
        <mxCell id="bsHtGkAG1uyYWepguyDH-296" value="" style="dashed=0;align=center;fontSize=12;shape=rect;strokeColor=none;fillColor=#098DCA;resizeWidth=1;" parent="bsHtGkAG1uyYWepguyDH-293" vertex="1">
          <mxGeometry width="430" height="40" relative="1" as="geometry">
            <mxPoint y="20" as="offset" />
          </mxGeometry>
        </mxCell>
        <mxCell id="bsHtGkAG1uyYWepguyDH-297" value="" style="dashed=0;align=center;fontSize=12;shape=rect;strokeColor=none;fillColor=#000000;resizeWidth=1;" parent="bsHtGkAG1uyYWepguyDH-293" vertex="1">
          <mxGeometry y="1" width="430" height="48" relative="1" as="geometry">
            <mxPoint y="-48" as="offset" />
          </mxGeometry>
        </mxCell>
        <mxCell id="bsHtGkAG1uyYWepguyDH-298" value="" style="dashed=0;html=1;shape=mxgraph.gmdl.back;strokeColor=#ffffff;fillColor=#000000;strokeWidth=2;" parent="bsHtGkAG1uyYWepguyDH-297" vertex="1">
          <mxGeometry x="0.25" y="0.5" width="14" height="14" relative="1" as="geometry">
            <mxPoint x="-7" y="-7" as="offset" />
          </mxGeometry>
        </mxCell>
        <mxCell id="bsHtGkAG1uyYWepguyDH-299" value="" style="shape=ellipse;strokeColor=#ffffff;fillColor=#000000;strokeWidth=2;" parent="bsHtGkAG1uyYWepguyDH-297" vertex="1">
          <mxGeometry x="0.5" y="0.5" width="14" height="14" relative="1" as="geometry">
            <mxPoint x="-7" y="-7" as="offset" />
          </mxGeometry>
        </mxCell>
        <mxCell id="bsHtGkAG1uyYWepguyDH-300" value="" style="shape=rect;strokeColor=#ffffff;fillColor=#000000;strokeWidth=2;" parent="bsHtGkAG1uyYWepguyDH-297" vertex="1">
          <mxGeometry x="0.75" y="0.5" width="14" height="14" relative="1" as="geometry">
            <mxPoint x="-7" y="-7" as="offset" />
          </mxGeometry>
        </mxCell>
        <mxCell id="bsHtGkAG1uyYWepguyDH-346" value="Password&lt;sup&gt;&lt;font color=&quot;#ff0000&quot;&gt;*&lt;/font&gt;&lt;/sup&gt;" style="fillColor=none;strokeColor=none;html=1;fontSize=11;fontStyle=0;align=left;fontColor=#596780;fontStyle=1;fontSize=11" parent="bsHtGkAG1uyYWepguyDH-293" vertex="1">
          <mxGeometry x="40.83798882681563" y="359.81308411214945" width="288.26815642458104" height="21.806853582554517" as="geometry" />
        </mxCell>
        <mxCell id="bsHtGkAG1uyYWepguyDH-347" value="&amp;#8226;&amp;#8226;&amp;#8226;&amp;#8226;&amp;#8226;&amp;#8226;&amp;#8226;&amp;#8226;" style="rounded=1;arcSize=9;align=left;spacingLeft=5;strokeColor=#4C9AFF;html=1;strokeWidth=2;fontSize=12" parent="bsHtGkAG1uyYWepguyDH-293" vertex="1">
          <mxGeometry x="40.83798882681563" y="392.52336448598123" width="348.3240223463686" height="35.98130841121495" as="geometry" />
        </mxCell>
        <mxCell id="bsHtGkAG1uyYWepguyDH-348" value="Username&lt;sup&gt;&lt;font color=&quot;#ff0000&quot;&gt;*&lt;/font&gt;&lt;/sup&gt;" style="fillColor=none;strokeColor=none;html=1;fontSize=11;fontStyle=0;align=left;fontColor=#596780;fontStyle=1;fontSize=11" parent="bsHtGkAG1uyYWepguyDH-293" vertex="1">
          <mxGeometry x="40.83798882681563" y="272.5856697819315" width="288.26815642458104" height="21.806853582554517" as="geometry" />
        </mxCell>
        <mxCell id="bsHtGkAG1uyYWepguyDH-349" value="Messina Cake" style="rounded=1;arcSize=9;align=left;spacingLeft=5;strokeColor=#4C9AFF;html=1;strokeWidth=2;fontSize=12" parent="bsHtGkAG1uyYWepguyDH-293" vertex="1">
          <mxGeometry x="40.83798882681563" y="299.84423676012455" width="348.3240223463686" height="35.98130841121495" as="geometry" />
        </mxCell>
        <mxCell id="bsHtGkAG1uyYWepguyDH-353" value="Login" style="rounded=1;fillColor=#0057D8;align=center;strokeColor=none;html=1;fontColor=#ffffff;fontSize=12;sketch=0;" parent="bsHtGkAG1uyYWepguyDH-293" vertex="1">
          <mxGeometry x="166.95530726256985" y="479.7507788161994" width="96.08938547486032" height="35.98130841121495" as="geometry" />
        </mxCell>
        <mxCell id="bsHtGkAG1uyYWepguyDH-355" value="Register" style="rounded=1;fillColor=#F1F2F4;strokeColor=none;html=1;fontColor=#596780;align=center;verticalAlign=middle;fontStyle=0;fontSize=12;sketch=0;" parent="bsHtGkAG1uyYWepguyDH-293" vertex="1">
          <mxGeometry x="166.95530726256985" y="577.8816199376947" width="103.29608938547484" height="35.98130841121495" as="geometry" />
        </mxCell>
        <mxCell id="bsHtGkAG1uyYWepguyDH-380" style="edgeStyle=orthogonalEdgeStyle;rounded=0;orthogonalLoop=1;jettySize=auto;html=1;exitX=0.5;exitY=1;exitDx=0;exitDy=0;" parent="bsHtGkAG1uyYWepguyDH-293" source="bsHtGkAG1uyYWepguyDH-296" target="bsHtGkAG1uyYWepguyDH-296" edge="1">
          <mxGeometry relative="1" as="geometry" />
        </mxCell>
        <mxCell id="bsHtGkAG1uyYWepguyDH-502" value="" style="sketch=0;outlineConnect=0;fontColor=#232F3E;gradientColor=none;fillColor=#D45B07;strokeColor=none;dashed=0;verticalLabelPosition=bottom;verticalAlign=top;align=center;html=1;fontSize=12;fontStyle=0;aspect=fixed;pointerEvents=1;shape=mxgraph.aws4.container_registry_image;" parent="bsHtGkAG1uyYWepguyDH-293" vertex="1">
          <mxGeometry x="149.602905027933" y="119.99797507788162" width="138" height="138" as="geometry" />
        </mxCell>
        <mxCell id="bsHtGkAG1uyYWepguyDH-645" value="Login" style="text;strokeColor=none;fillColor=none;html=1;fontSize=24;fontStyle=1;verticalAlign=middle;align=center;" parent="bsHtGkAG1uyYWepguyDH-293" vertex="1">
          <mxGeometry x="155.27333333333308" y="19.997196261682177" width="119.44444444444444" height="43.613707165109034" as="geometry" />
        </mxCell>
        <mxCell id="bsHtGkAG1uyYWepguyDH-315" value="Your vanity URL" style="html=1;shadow=0;dashed=0;shape=mxgraph.bootstrap.rrect;rSize=5;strokeColor=none;html=1;whiteSpace=wrap;fillColor=none;fontColor=#212529;align=left;spacingLeft=0;fontSize=14;" parent="1" vertex="1">
          <mxGeometry x="278" y="1240" width="200" height="30" as="geometry" />
        </mxCell>
        <mxCell id="bsHtGkAG1uyYWepguyDH-316" value="" style="html=1;shadow=0;dashed=0;shape=mxgraph.bootstrap.rrect;rSize=5;strokeColor=#CED4DA;html=1;whiteSpace=wrap;fillColor=#FFFFFF;fontColor=#7D868C;align=left;spacing=15;spacingLeft=40;fontSize=14;" parent="1" vertex="1">
          <mxGeometry x="278" y="1270" width="800" height="40" as="geometry" />
        </mxCell>
        <mxCell id="bsHtGkAG1uyYWepguyDH-317" value="http://example.com/users/" style="html=1;shadow=0;dashed=0;shape=mxgraph.bootstrap.leftButton;strokeColor=inherit;gradientColor=inherit;fontColor=inherit;fillColor=#E9ECEF;rSize=5;perimeter=none;whiteSpace=wrap;resizeHeight=1;fontSize=14;" parent="bsHtGkAG1uyYWepguyDH-316" vertex="1">
          <mxGeometry width="190" height="40" as="geometry" />
        </mxCell>
        <mxCell id="bsHtGkAG1uyYWepguyDH-318" value="" style="html=1;shadow=0;dashed=0;shape=mxgraph.bootstrap.rrect;rSize=5;strokeColor=#CED4DA;html=1;whiteSpace=wrap;fillColor=#FFFFFF;fontColor=#7D868C;align=left;spacing=15;spacingLeft=40;fontSize=14;" parent="1" vertex="1">
          <mxGeometry x="278" y="1330" width="800" height="40" as="geometry" />
        </mxCell>
        <mxCell id="bsHtGkAG1uyYWepguyDH-319" value="$" style="html=1;shadow=0;dashed=0;shape=mxgraph.bootstrap.leftButton;strokeColor=inherit;gradientColor=inherit;fontColor=inherit;fillColor=#E9ECEF;rSize=5;perimeter=none;whiteSpace=wrap;resizeHeight=1;fontSize=14;" parent="bsHtGkAG1uyYWepguyDH-318" vertex="1">
          <mxGeometry width="40" height="40" as="geometry" />
        </mxCell>
        <mxCell id="bsHtGkAG1uyYWepguyDH-320" value=".00" style="html=1;shadow=0;dashed=0;shape=mxgraph.bootstrap.rightButton;strokeColor=inherit;gradientColor=inherit;fontColor=inherit;fillColor=#E9ECEF;rSize=5;perimeter=none;whiteSpace=wrap;resizeHeight=1;fontSize=14;" parent="bsHtGkAG1uyYWepguyDH-318" vertex="1">
          <mxGeometry x="1" width="40" height="40" relative="1" as="geometry">
            <mxPoint x="-40" as="offset" />
          </mxGeometry>
        </mxCell>
        <mxCell id="bsHtGkAG1uyYWepguyDH-321" value="" style="html=1;shadow=0;dashed=0;shape=mxgraph.bootstrap.rrect;rSize=5;strokeColor=#CED4DA;html=1;whiteSpace=wrap;fillColor=#FFFFFF;fontColor=#7D868C;align=left;spacing=15;spacingLeft=40;fontSize=14;" parent="1" vertex="1">
          <mxGeometry x="278" y="1390" width="800" height="70" as="geometry" />
        </mxCell>
        <mxCell id="bsHtGkAG1uyYWepguyDH-322" value="With textarea" style="html=1;shadow=0;dashed=0;shape=mxgraph.bootstrap.leftButton;strokeColor=inherit;gradientColor=inherit;fontColor=inherit;fillColor=#E9ECEF;rSize=5;perimeter=none;whiteSpace=wrap;resizeHeight=1;fontSize=14;" parent="bsHtGkAG1uyYWepguyDH-321" vertex="1">
          <mxGeometry width="100" height="70" as="geometry" />
        </mxCell>
        <mxCell id="bsHtGkAG1uyYWepguyDH-356" value="" style="dashed=0;align=center;fontSize=12;shape=rect;fillColor=#ffffff;strokeColor=none;" parent="1" vertex="1">
          <mxGeometry x="648" y="460" width="430" height="700" as="geometry" />
        </mxCell>
        <mxCell id="bsHtGkAG1uyYWepguyDH-357" value="12:30" style="dashed=0;align=center;fontSize=12;shape=rect;align=right;fillColor=#0973AE;strokeColor=none;fontColor=#FFFFFF;spacingRight=4;spacingTop=1;fontStyle=0;fontSize=13;resizeWidth=1;" parent="bsHtGkAG1uyYWepguyDH-356" vertex="1">
          <mxGeometry width="430.0000000000001" height="24" relative="1" as="geometry" />
        </mxCell>
        <mxCell id="bsHtGkAG1uyYWepguyDH-358" value="" style="dashed=0;html=1;shape=mxgraph.gmdl.top_bar;fillColor=#0973AE;strokeColor=none;" parent="bsHtGkAG1uyYWepguyDH-357" vertex="1">
          <mxGeometry x="1" y="0.5" width="46" height="14" relative="1" as="geometry">
            <mxPoint x="-92" y="-7" as="offset" />
          </mxGeometry>
        </mxCell>
        <mxCell id="bsHtGkAG1uyYWepguyDH-359" value="" style="dashed=0;align=center;fontSize=12;shape=rect;strokeColor=none;fillColor=#098DCA;resizeWidth=1;" parent="bsHtGkAG1uyYWepguyDH-356" vertex="1">
          <mxGeometry width="430.0000000000001" height="40" relative="1" as="geometry">
            <mxPoint y="20" as="offset" />
          </mxGeometry>
        </mxCell>
        <mxCell id="bsHtGkAG1uyYWepguyDH-360" value="" style="dashed=0;align=center;fontSize=12;shape=rect;strokeColor=none;fillColor=#000000;resizeWidth=1;" parent="bsHtGkAG1uyYWepguyDH-356" vertex="1">
          <mxGeometry y="1" width="430.0000000000001" height="48" relative="1" as="geometry">
            <mxPoint y="-48" as="offset" />
          </mxGeometry>
        </mxCell>
        <mxCell id="bsHtGkAG1uyYWepguyDH-361" value="" style="dashed=0;html=1;shape=mxgraph.gmdl.back;strokeColor=#ffffff;fillColor=#000000;strokeWidth=2;" parent="bsHtGkAG1uyYWepguyDH-360" vertex="1">
          <mxGeometry x="0.25" y="0.5" width="14" height="14" relative="1" as="geometry">
            <mxPoint x="-7" y="-7" as="offset" />
          </mxGeometry>
        </mxCell>
        <mxCell id="bsHtGkAG1uyYWepguyDH-362" value="" style="shape=ellipse;strokeColor=#ffffff;fillColor=#000000;strokeWidth=2;" parent="bsHtGkAG1uyYWepguyDH-360" vertex="1">
          <mxGeometry x="0.5" y="0.5" width="14" height="14" relative="1" as="geometry">
            <mxPoint x="-7" y="-7" as="offset" />
          </mxGeometry>
        </mxCell>
        <mxCell id="bsHtGkAG1uyYWepguyDH-363" value="" style="shape=rect;strokeColor=#ffffff;fillColor=#000000;strokeWidth=2;" parent="bsHtGkAG1uyYWepguyDH-360" vertex="1">
          <mxGeometry x="0.75" y="0.5" width="14" height="14" relative="1" as="geometry">
            <mxPoint x="-7" y="-7" as="offset" />
          </mxGeometry>
        </mxCell>
        <mxCell id="bsHtGkAG1uyYWepguyDH-364" value="Password&lt;sup&gt;&lt;font color=&quot;#ff0000&quot;&gt;*&lt;/font&gt;&lt;/sup&gt;" style="fillColor=none;strokeColor=none;html=1;fontSize=11;fontStyle=0;align=left;fontColor=#596780;fontStyle=1;fontSize=11" parent="bsHtGkAG1uyYWepguyDH-356" vertex="1">
          <mxGeometry x="40.83798882681565" y="303.1152647975078" width="288.26815642458104" height="21.806853582554517" as="geometry" />
        </mxCell>
        <mxCell id="bsHtGkAG1uyYWepguyDH-365" value="&amp;#8226;&amp;#8226;&amp;#8226;&amp;#8226;&amp;#8226;&amp;#8226;&amp;#8226;&amp;#8226;" style="rounded=1;arcSize=9;align=left;spacingLeft=5;strokeColor=#4C9AFF;html=1;strokeWidth=2;fontSize=12" parent="bsHtGkAG1uyYWepguyDH-356" vertex="1">
          <mxGeometry x="40.83798882681565" y="324.92211838006233" width="348.32402234636874" height="35.981308411214954" as="geometry" />
        </mxCell>
        <mxCell id="bsHtGkAG1uyYWepguyDH-366" value="Username&lt;sup&gt;&lt;font color=&quot;#ff0000&quot;&gt;*&lt;/font&gt;&lt;/sup&gt;" style="fillColor=none;strokeColor=none;html=1;fontSize=11;fontStyle=0;align=left;fontColor=#596780;fontStyle=1;fontSize=11" parent="bsHtGkAG1uyYWepguyDH-356" vertex="1">
          <mxGeometry x="40.83798882681565" y="245.3271028037383" width="288.26815642458104" height="21.806853582554517" as="geometry" />
        </mxCell>
        <mxCell id="bsHtGkAG1uyYWepguyDH-367" value="Messina Cake" style="rounded=1;arcSize=9;align=left;spacingLeft=5;strokeColor=#4C9AFF;html=1;strokeWidth=2;fontSize=12" parent="bsHtGkAG1uyYWepguyDH-356" vertex="1">
          <mxGeometry x="40.83798882681565" y="267.1339563862928" width="348.32402234636874" height="35.981308411214954" as="geometry" />
        </mxCell>
        <mxCell id="bsHtGkAG1uyYWepguyDH-370" value="Cancel" style="rounded=1;fillColor=#F1F2F4;strokeColor=none;html=1;fontColor=#596780;align=center;verticalAlign=middle;fontStyle=0;fontSize=12;sketch=0;" parent="bsHtGkAG1uyYWepguyDH-356" vertex="1">
          <mxGeometry x="28.826815642458104" y="588.785046728972" width="103.29608938547486" height="35.981308411214954" as="geometry" />
        </mxCell>
        <mxCell id="bsHtGkAG1uyYWepguyDH-369" value="Register" style="rounded=1;fillColor=#0057D8;align=center;strokeColor=none;html=1;fontColor=#ffffff;fontSize=12;sketch=0;" parent="bsHtGkAG1uyYWepguyDH-356" vertex="1">
          <mxGeometry x="305.08379888268155" y="588.785046728972" width="96.08938547486035" height="35.981308411214954" as="geometry" />
        </mxCell>
        <mxCell id="bsHtGkAG1uyYWepguyDH-379" value="" style="html=1;verticalLabelPosition=bottom;align=center;labelBackgroundColor=#ffffff;verticalAlign=top;strokeWidth=2;strokeColor=#0080F0;shadow=0;dashed=0;shape=mxgraph.ios7.icons.user;" parent="bsHtGkAG1uyYWepguyDH-356" vertex="1">
          <mxGeometry x="154.47" y="109.03" width="121.06" height="114.49" as="geometry" />
        </mxCell>
        <mxCell id="bsHtGkAG1uyYWepguyDH-371" value="Email" style="fillColor=none;strokeColor=none;html=1;fontSize=11;fontStyle=0;align=left;fontColor=#596780;fontStyle=1;fontSize=11" parent="bsHtGkAG1uyYWepguyDH-356" vertex="1">
          <mxGeometry x="40.83798882681565" y="428.50467289719626" width="288.26815642458104" height="21.806853582554517" as="geometry" />
        </mxCell>
        <mxCell id="bsHtGkAG1uyYWepguyDH-372" value="" style="rounded=1;arcSize=9;align=left;spacingLeft=5;strokeColor=#4C9AFF;html=1;strokeWidth=2;fontSize=12" parent="bsHtGkAG1uyYWepguyDH-356" vertex="1">
          <mxGeometry x="40.83798882681565" y="450.3115264797508" width="348.32402234636874" height="35.981308411214954" as="geometry" />
        </mxCell>
        <mxCell id="bsHtGkAG1uyYWepguyDH-373" value="Nickname&lt;span style=&quot;color: rgb(255 , 0 , 0) ; font-size: 9.16667px&quot;&gt;*&lt;/span&gt;" style="fillColor=none;strokeColor=none;html=1;fontSize=11;fontStyle=0;align=left;fontColor=#596780;fontStyle=1;fontSize=11" parent="bsHtGkAG1uyYWepguyDH-356" vertex="1">
          <mxGeometry x="40.83798882681565" y="370.71651090342687" width="288.26815642458104" height="21.806853582554517" as="geometry" />
        </mxCell>
        <mxCell id="bsHtGkAG1uyYWepguyDH-374" value="" style="rounded=1;arcSize=9;align=left;spacingLeft=5;strokeColor=#4C9AFF;html=1;strokeWidth=2;fontSize=12" parent="bsHtGkAG1uyYWepguyDH-356" vertex="1">
          <mxGeometry x="40.83798882681565" y="392.5233644859813" width="348.32402234636874" height="35.981308411214954" as="geometry" />
        </mxCell>
        <mxCell id="bsHtGkAG1uyYWepguyDH-375" value="Bio" style="fillColor=none;strokeColor=none;html=1;fontSize=11;fontStyle=0;align=left;fontColor=#596780;fontStyle=1;fontSize=11" parent="bsHtGkAG1uyYWepguyDH-356" vertex="1">
          <mxGeometry x="40.83798882681565" y="486.2928348909657" width="288.26815642458104" height="21.806853582554517" as="geometry" />
        </mxCell>
        <mxCell id="bsHtGkAG1uyYWepguyDH-376" value="" style="rounded=1;arcSize=9;align=left;spacingLeft=5;strokeColor=#4C9AFF;html=1;strokeWidth=2;fontSize=12" parent="bsHtGkAG1uyYWepguyDH-356" vertex="1">
          <mxGeometry x="40.83798882681565" y="508.0996884735203" width="348.32402234636874" height="69.78193146417445" as="geometry" />
        </mxCell>
        <mxCell id="bsHtGkAG1uyYWepguyDH-644" value="Register" style="text;strokeColor=none;fillColor=none;html=1;fontSize=24;fontStyle=1;verticalAlign=middle;align=center;" parent="bsHtGkAG1uyYWepguyDH-356" vertex="1">
          <mxGeometry x="156.08333333333303" y="19.997196261682177" width="119.44444444444444" height="43.613707165109034" as="geometry" />
        </mxCell>
        <mxCell id="bsHtGkAG1uyYWepguyDH-381" value="" style="sketch=0;pointerEvents=1;shadow=0;dashed=0;html=1;strokeColor=none;labelPosition=center;verticalLabelPosition=bottom;verticalAlign=top;outlineConnect=0;align=center;shape=mxgraph.office.concepts.home;fillColor=#CCCBCB;" parent="1" vertex="1">
          <mxGeometry x="1070" y="340" width="51" height="50" as="geometry" />
        </mxCell>
        <mxCell id="bsHtGkAG1uyYWepguyDH-576" value="" style="dashed=0;align=center;fontSize=12;shape=rect;fillColor=#ffffff;strokeColor=none;" parent="1" vertex="1">
          <mxGeometry x="1330" y="1330" width="430" height="700" as="geometry" />
        </mxCell>
        <mxCell id="bsHtGkAG1uyYWepguyDH-577" value="12:30" style="dashed=0;align=center;fontSize=12;shape=rect;align=right;fillColor=#0973AE;strokeColor=none;fontColor=#FFFFFF;spacingRight=4;spacingTop=1;fontStyle=0;fontSize=13;resizeWidth=1;" parent="bsHtGkAG1uyYWepguyDH-576" vertex="1">
          <mxGeometry width="427.6111111111111" height="24" relative="1" as="geometry" />
        </mxCell>
        <mxCell id="bsHtGkAG1uyYWepguyDH-578" value="" style="dashed=0;html=1;shape=mxgraph.gmdl.top_bar;fillColor=#0973AE;strokeColor=none;" parent="bsHtGkAG1uyYWepguyDH-577" vertex="1">
          <mxGeometry x="1" y="0.5" width="46" height="14" relative="1" as="geometry">
            <mxPoint x="-92" y="-7" as="offset" />
          </mxGeometry>
        </mxCell>
        <mxCell id="bsHtGkAG1uyYWepguyDH-579" value="" style="dashed=0;align=center;fontSize=12;shape=rect;strokeColor=none;fillColor=#098DCA;resizeWidth=1;" parent="bsHtGkAG1uyYWepguyDH-576" vertex="1">
          <mxGeometry width="427.6111111111111" height="40" relative="1" as="geometry">
            <mxPoint y="20" as="offset" />
          </mxGeometry>
        </mxCell>
        <mxCell id="bsHtGkAG1uyYWepguyDH-580" value="" style="shape=image;html=1;verticalAlign=top;verticalLabelPosition=bottom;labelBackgroundColor=#ffffff;imageAspect=0;image=https://cdn1.iconfinder.com/data/icons/material-core/18/menu-128.png;direction=south;" parent="bsHtGkAG1uyYWepguyDH-576" vertex="1">
          <mxGeometry x="9.934999999999999" y="25.925" width="28.19" height="28.06" as="geometry" />
        </mxCell>
        <mxCell id="bsHtGkAG1uyYWepguyDH-581" value="1000" style="rounded=1;html=1;shadow=0;dashed=0;whiteSpace=wrap;fontSize=10;fillColor=#E6E6E6;align=center;strokeColor=#B3B3B3;fontColor=#333333;spacingLeft=17;" parent="bsHtGkAG1uyYWepguyDH-576" vertex="1">
          <mxGeometry x="334.44444444444446" y="24.13339563862928" width="83.61111111111111" height="29.919003115264797" as="geometry" />
        </mxCell>
        <mxCell id="bsHtGkAG1uyYWepguyDH-582" value="" style="shape=image;html=1;verticalAlign=top;verticalLabelPosition=bottom;labelBackgroundColor=#ffffff;imageAspect=0;aspect=fixed;image=https://cdn0.iconfinder.com/data/icons/heroicons-ui/24/icon-currency-dollar-128.png" parent="bsHtGkAG1uyYWepguyDH-576" vertex="1">
          <mxGeometry x="334.44444444444446" y="23.712928348909657" width="30.76947040498442" height="30.76947040498442" as="geometry" />
        </mxCell>
        <mxCell id="bsHtGkAG1uyYWepguyDH-583" value="NFT SHOP" style="text;strokeColor=none;fillColor=none;html=1;fontSize=24;fontStyle=1;verticalAlign=middle;align=center;" parent="bsHtGkAG1uyYWepguyDH-576" vertex="1">
          <mxGeometry x="153.09333333333333" y="18.14719626168224" width="119.44444444444444" height="43.613707165109034" as="geometry" />
        </mxCell>
        <mxCell id="bsHtGkAG1uyYWepguyDH-584" value="" style="dashed=0;shape=rect;fillColor=#ffffff;strokeColor=none;" parent="bsHtGkAG1uyYWepguyDH-576" vertex="1">
          <mxGeometry x="33.001666666666665" y="239.34579439252335" width="132.58333333333334" height="30.52959501557632" as="geometry" />
        </mxCell>
        <mxCell id="bsHtGkAG1uyYWepguyDH-585" value="" style="dashed=0;shape=rect;fillColor=#ffffff;strokeColor=none;" parent="bsHtGkAG1uyYWepguyDH-576" vertex="1">
          <mxGeometry x="194.8488888888889" y="239.34579439252335" width="132.58333333333334" height="30.52959501557632" as="geometry" />
        </mxCell>
        <mxCell id="bsHtGkAG1uyYWepguyDH-586" value="" style="shape=rect;fillColor=#BDBDBD;strokeColor=#BDBDBD;shadow=1;sketch=0;rounded=1;" parent="bsHtGkAG1uyYWepguyDH-576" vertex="1">
          <mxGeometry x="10" y="70" width="410" height="620" as="geometry" />
        </mxCell>
        <mxCell id="bsHtGkAG1uyYWepguyDH-587" value="Shop Window" style="rounded=1;align=center;fillColor=#F1F2F4;strokeColor=none;html=1;fontColor=#A5ADBA;fontSize=12;shadow=1;sketch=0;" parent="bsHtGkAG1uyYWepguyDH-586" vertex="1">
          <mxGeometry x="149.23" y="-6.4138235108862265" width="111.54" height="34.36561758592455" as="geometry" />
        </mxCell>
        <mxCell id="bsHtGkAG1uyYWepguyDH-588" value="Shop" style="rounded=1;html=1;shadow=0;dashed=0;whiteSpace=wrap;fontSize=35;fillColor=#E6E6E6;align=center;strokeColor=#E6E6E6;fontColor=#333333;sketch=0;" parent="bsHtGkAG1uyYWepguyDH-586" vertex="1">
          <mxGeometry x="95" y="437.0480758996401" width="220" height="91.12095572025449" as="geometry" />
        </mxCell>
        <mxCell id="bsHtGkAG1uyYWepguyDH-589" value="" style="shape=rect;fillColor=#eeeeee;strokeColor=none;sketch=0;aspect=fixed;" parent="bsHtGkAG1uyYWepguyDH-576" vertex="1">
          <mxGeometry x="22.46" y="110" width="121" height="180" as="geometry" />
        </mxCell>
        <mxCell id="bsHtGkAG1uyYWepguyDH-590" value="" style="sketch=0;outlineConnect=0;fontColor=#232F3E;gradientColor=none;fillColor=#D45B07;strokeColor=none;dashed=0;verticalLabelPosition=bottom;verticalAlign=top;align=center;html=1;fontSize=12;fontStyle=0;aspect=fixed;pointerEvents=1;shape=mxgraph.aws4.container_registry_image;" parent="bsHtGkAG1uyYWepguyDH-576" vertex="1">
          <mxGeometry x="42.96" y="121" width="80" height="80" as="geometry" />
        </mxCell>
        <mxCell id="bsHtGkAG1uyYWepguyDH-591" value="" style="dashed=0;shape=rect;fillColor=#ffffff;strokeColor=none;sketch=0;aspect=fixed;" parent="bsHtGkAG1uyYWepguyDH-576" vertex="1">
          <mxGeometry x="27.46" y="212" width="111" height="28" as="geometry" />
        </mxCell>
        <mxCell id="bsHtGkAG1uyYWepguyDH-592" value="Heist" style="text;strokeColor=none;fillColor=none;html=1;fontSize=24;fontStyle=1;verticalAlign=middle;align=center;sketch=0;aspect=fixed;" parent="bsHtGkAG1uyYWepguyDH-576" vertex="1">
          <mxGeometry x="18.96" y="217" width="100" height="18" as="geometry" />
        </mxCell>
        <mxCell id="bsHtGkAG1uyYWepguyDH-593" value="1000" style="rounded=1;html=1;shadow=0;dashed=0;whiteSpace=wrap;fontSize=10;fillColor=#f5f5f5;align=center;strokeColor=#666666;fontColor=#333333;spacingLeft=17;sketch=0;aspect=fixed;" parent="bsHtGkAG1uyYWepguyDH-576" vertex="1">
          <mxGeometry x="33.96" y="250.39" width="95" height="27.44" as="geometry" />
        </mxCell>
        <mxCell id="bsHtGkAG1uyYWepguyDH-594" value="" style="shape=image;html=1;verticalAlign=top;verticalLabelPosition=bottom;labelBackgroundColor=#ffffff;imageAspect=0;aspect=fixed;image=https://cdn0.iconfinder.com/data/icons/heroicons-ui/24/icon-currency-dollar-128.png;sketch=0;" parent="bsHtGkAG1uyYWepguyDH-576" vertex="1">
          <mxGeometry x="33.96" y="250.39" width="28.22" height="28.22" as="geometry" />
        </mxCell>
        <mxCell id="bsHtGkAG1uyYWepguyDH-595" value="" style="shape=rect;fillColor=#eeeeee;strokeColor=none;sketch=0;aspect=fixed;" parent="bsHtGkAG1uyYWepguyDH-576" vertex="1">
          <mxGeometry x="156.53999999999994" y="110" width="121" height="180" as="geometry" />
        </mxCell>
        <mxCell id="bsHtGkAG1uyYWepguyDH-596" value="" style="sketch=0;outlineConnect=0;fontColor=#232F3E;gradientColor=none;fillColor=#D45B07;strokeColor=none;dashed=0;verticalLabelPosition=bottom;verticalAlign=top;align=center;html=1;fontSize=12;fontStyle=0;aspect=fixed;pointerEvents=1;shape=mxgraph.aws4.container_registry_image;" parent="bsHtGkAG1uyYWepguyDH-576" vertex="1">
          <mxGeometry x="177.03999999999994" y="121" width="80" height="80" as="geometry" />
        </mxCell>
        <mxCell id="bsHtGkAG1uyYWepguyDH-597" value="" style="dashed=0;shape=rect;fillColor=#ffffff;strokeColor=none;sketch=0;aspect=fixed;" parent="bsHtGkAG1uyYWepguyDH-576" vertex="1">
          <mxGeometry x="161.53999999999994" y="212" width="111" height="28" as="geometry" />
        </mxCell>
        <mxCell id="bsHtGkAG1uyYWepguyDH-598" value="Heist" style="text;strokeColor=none;fillColor=none;html=1;fontSize=24;fontStyle=1;verticalAlign=middle;align=center;sketch=0;aspect=fixed;" parent="bsHtGkAG1uyYWepguyDH-576" vertex="1">
          <mxGeometry x="153.03999999999994" y="217" width="100" height="18" as="geometry" />
        </mxCell>
        <mxCell id="bsHtGkAG1uyYWepguyDH-599" value="1000" style="rounded=1;html=1;shadow=0;dashed=0;whiteSpace=wrap;fontSize=10;fillColor=#f5f5f5;align=center;strokeColor=#666666;fontColor=#333333;spacingLeft=17;sketch=0;aspect=fixed;" parent="bsHtGkAG1uyYWepguyDH-576" vertex="1">
          <mxGeometry x="168.03999999999994" y="250.39" width="95" height="27.44" as="geometry" />
        </mxCell>
        <mxCell id="bsHtGkAG1uyYWepguyDH-600" value="" style="shape=image;html=1;verticalAlign=top;verticalLabelPosition=bottom;labelBackgroundColor=#ffffff;imageAspect=0;aspect=fixed;image=https://cdn0.iconfinder.com/data/icons/heroicons-ui/24/icon-currency-dollar-128.png;sketch=0;" parent="bsHtGkAG1uyYWepguyDH-576" vertex="1">
          <mxGeometry x="168.03999999999994" y="250.39" width="28.22" height="28.22" as="geometry" />
        </mxCell>
        <mxCell id="bsHtGkAG1uyYWepguyDH-601" value="" style="shape=rect;fillColor=#eeeeee;strokeColor=none;sketch=0;aspect=fixed;" parent="bsHtGkAG1uyYWepguyDH-576" vertex="1">
          <mxGeometry x="290.0399999999999" y="110" width="121" height="180" as="geometry" />
        </mxCell>
        <mxCell id="bsHtGkAG1uyYWepguyDH-602" value="" style="sketch=0;outlineConnect=0;fontColor=#232F3E;gradientColor=none;fillColor=#D45B07;strokeColor=none;dashed=0;verticalLabelPosition=bottom;verticalAlign=top;align=center;html=1;fontSize=12;fontStyle=0;aspect=fixed;pointerEvents=1;shape=mxgraph.aws4.container_registry_image;" parent="bsHtGkAG1uyYWepguyDH-576" vertex="1">
          <mxGeometry x="310.5399999999999" y="121" width="80" height="80" as="geometry" />
        </mxCell>
        <mxCell id="bsHtGkAG1uyYWepguyDH-603" value="" style="dashed=0;shape=rect;fillColor=#ffffff;strokeColor=none;sketch=0;aspect=fixed;" parent="bsHtGkAG1uyYWepguyDH-576" vertex="1">
          <mxGeometry x="295.0399999999999" y="212" width="111" height="28" as="geometry" />
        </mxCell>
        <mxCell id="bsHtGkAG1uyYWepguyDH-604" value="Heist" style="text;strokeColor=none;fillColor=none;html=1;fontSize=24;fontStyle=1;verticalAlign=middle;align=center;sketch=0;aspect=fixed;" parent="bsHtGkAG1uyYWepguyDH-576" vertex="1">
          <mxGeometry x="286.5399999999999" y="217" width="100" height="18" as="geometry" />
        </mxCell>
        <mxCell id="bsHtGkAG1uyYWepguyDH-605" value="1000" style="rounded=1;html=1;shadow=0;dashed=0;whiteSpace=wrap;fontSize=10;fillColor=#f5f5f5;align=center;strokeColor=#666666;fontColor=#333333;spacingLeft=17;sketch=0;aspect=fixed;" parent="bsHtGkAG1uyYWepguyDH-576" vertex="1">
          <mxGeometry x="301.5399999999999" y="250.39" width="95" height="27.44" as="geometry" />
        </mxCell>
        <mxCell id="bsHtGkAG1uyYWepguyDH-606" value="" style="shape=image;html=1;verticalAlign=top;verticalLabelPosition=bottom;labelBackgroundColor=#ffffff;imageAspect=0;aspect=fixed;image=https://cdn0.iconfinder.com/data/icons/heroicons-ui/24/icon-currency-dollar-128.png;sketch=0;" parent="bsHtGkAG1uyYWepguyDH-576" vertex="1">
          <mxGeometry x="301.5399999999999" y="250.39" width="28.22" height="28.22" as="geometry" />
        </mxCell>
        <mxCell id="bsHtGkAG1uyYWepguyDH-607" value="" style="shape=rect;fillColor=#eeeeee;strokeColor=none;sketch=0;aspect=fixed;" parent="bsHtGkAG1uyYWepguyDH-576" vertex="1">
          <mxGeometry x="22.46" y="300" width="121" height="180" as="geometry" />
        </mxCell>
        <mxCell id="bsHtGkAG1uyYWepguyDH-608" value="" style="sketch=0;outlineConnect=0;fontColor=#232F3E;gradientColor=none;fillColor=#D45B07;strokeColor=none;dashed=0;verticalLabelPosition=bottom;verticalAlign=top;align=center;html=1;fontSize=12;fontStyle=0;aspect=fixed;pointerEvents=1;shape=mxgraph.aws4.container_registry_image;" parent="bsHtGkAG1uyYWepguyDH-576" vertex="1">
          <mxGeometry x="42.96" y="311" width="80" height="80" as="geometry" />
        </mxCell>
        <mxCell id="bsHtGkAG1uyYWepguyDH-609" value="" style="dashed=0;shape=rect;fillColor=#ffffff;strokeColor=none;sketch=0;aspect=fixed;" parent="bsHtGkAG1uyYWepguyDH-576" vertex="1">
          <mxGeometry x="27.46" y="402" width="111" height="28" as="geometry" />
        </mxCell>
        <mxCell id="bsHtGkAG1uyYWepguyDH-610" value="Heist" style="text;strokeColor=none;fillColor=none;html=1;fontSize=24;fontStyle=1;verticalAlign=middle;align=center;sketch=0;aspect=fixed;" parent="bsHtGkAG1uyYWepguyDH-576" vertex="1">
          <mxGeometry x="18.96" y="407" width="100" height="18" as="geometry" />
        </mxCell>
        <mxCell id="bsHtGkAG1uyYWepguyDH-611" value="1000" style="rounded=1;html=1;shadow=0;dashed=0;whiteSpace=wrap;fontSize=10;fillColor=#f5f5f5;align=center;strokeColor=#666666;fontColor=#333333;spacingLeft=17;sketch=0;aspect=fixed;" parent="bsHtGkAG1uyYWepguyDH-576" vertex="1">
          <mxGeometry x="33.96" y="440.39" width="95" height="27.44" as="geometry" />
        </mxCell>
        <mxCell id="bsHtGkAG1uyYWepguyDH-612" value="" style="shape=image;html=1;verticalAlign=top;verticalLabelPosition=bottom;labelBackgroundColor=#ffffff;imageAspect=0;aspect=fixed;image=https://cdn0.iconfinder.com/data/icons/heroicons-ui/24/icon-currency-dollar-128.png;sketch=0;" parent="bsHtGkAG1uyYWepguyDH-576" vertex="1">
          <mxGeometry x="33.96" y="440.39" width="28.22" height="28.22" as="geometry" />
        </mxCell>
        <mxCell id="bsHtGkAG1uyYWepguyDH-613" value="" style="shape=rect;fillColor=#eeeeee;strokeColor=none;sketch=0;aspect=fixed;" parent="bsHtGkAG1uyYWepguyDH-576" vertex="1">
          <mxGeometry x="158.28999999999994" y="300" width="121" height="180" as="geometry" />
        </mxCell>
        <mxCell id="bsHtGkAG1uyYWepguyDH-614" value="" style="sketch=0;outlineConnect=0;fontColor=#232F3E;gradientColor=none;fillColor=#D45B07;strokeColor=none;dashed=0;verticalLabelPosition=bottom;verticalAlign=top;align=center;html=1;fontSize=12;fontStyle=0;aspect=fixed;pointerEvents=1;shape=mxgraph.aws4.container_registry_image;" parent="bsHtGkAG1uyYWepguyDH-576" vertex="1">
          <mxGeometry x="178.78999999999994" y="311" width="80" height="80" as="geometry" />
        </mxCell>
        <mxCell id="bsHtGkAG1uyYWepguyDH-615" value="" style="dashed=0;shape=rect;fillColor=#ffffff;strokeColor=none;sketch=0;aspect=fixed;" parent="bsHtGkAG1uyYWepguyDH-576" vertex="1">
          <mxGeometry x="163.28999999999994" y="402" width="111" height="28" as="geometry" />
        </mxCell>
        <mxCell id="bsHtGkAG1uyYWepguyDH-616" value="Heist" style="text;strokeColor=none;fillColor=none;html=1;fontSize=24;fontStyle=1;verticalAlign=middle;align=center;sketch=0;aspect=fixed;" parent="bsHtGkAG1uyYWepguyDH-576" vertex="1">
          <mxGeometry x="154.78999999999994" y="407" width="100" height="18" as="geometry" />
        </mxCell>
        <mxCell id="bsHtGkAG1uyYWepguyDH-617" value="1000" style="rounded=1;html=1;shadow=0;dashed=0;whiteSpace=wrap;fontSize=10;fillColor=#f5f5f5;align=center;strokeColor=#666666;fontColor=#333333;spacingLeft=17;sketch=0;aspect=fixed;" parent="bsHtGkAG1uyYWepguyDH-576" vertex="1">
          <mxGeometry x="169.78999999999994" y="440.39" width="95" height="27.44" as="geometry" />
        </mxCell>
        <mxCell id="bsHtGkAG1uyYWepguyDH-618" value="" style="shape=image;html=1;verticalAlign=top;verticalLabelPosition=bottom;labelBackgroundColor=#ffffff;imageAspect=0;aspect=fixed;image=https://cdn0.iconfinder.com/data/icons/heroicons-ui/24/icon-currency-dollar-128.png;sketch=0;" parent="bsHtGkAG1uyYWepguyDH-576" vertex="1">
          <mxGeometry x="169.78999999999994" y="440.39" width="28.22" height="28.22" as="geometry" />
        </mxCell>
        <mxCell id="bsHtGkAG1uyYWepguyDH-619" value="" style="shape=rect;fillColor=#eeeeee;strokeColor=none;sketch=0;aspect=fixed;" parent="bsHtGkAG1uyYWepguyDH-576" vertex="1">
          <mxGeometry x="290.0399999999999" y="300" width="121" height="180" as="geometry" />
        </mxCell>
        <mxCell id="bsHtGkAG1uyYWepguyDH-620" value="" style="sketch=0;outlineConnect=0;fontColor=#232F3E;gradientColor=none;fillColor=#D45B07;strokeColor=none;dashed=0;verticalLabelPosition=bottom;verticalAlign=top;align=center;html=1;fontSize=12;fontStyle=0;aspect=fixed;pointerEvents=1;shape=mxgraph.aws4.container_registry_image;" parent="bsHtGkAG1uyYWepguyDH-576" vertex="1">
          <mxGeometry x="310.5399999999999" y="311" width="80" height="80" as="geometry" />
        </mxCell>
        <mxCell id="bsHtGkAG1uyYWepguyDH-621" value="" style="dashed=0;shape=rect;fillColor=#ffffff;strokeColor=none;sketch=0;aspect=fixed;" parent="bsHtGkAG1uyYWepguyDH-576" vertex="1">
          <mxGeometry x="295.0399999999999" y="402" width="111" height="28" as="geometry" />
        </mxCell>
        <mxCell id="bsHtGkAG1uyYWepguyDH-622" value="Heist" style="text;strokeColor=none;fillColor=none;html=1;fontSize=24;fontStyle=1;verticalAlign=middle;align=center;sketch=0;aspect=fixed;" parent="bsHtGkAG1uyYWepguyDH-576" vertex="1">
          <mxGeometry x="286.5399999999999" y="407" width="100" height="18" as="geometry" />
        </mxCell>
        <mxCell id="bsHtGkAG1uyYWepguyDH-623" value="1000" style="rounded=1;html=1;shadow=0;dashed=0;whiteSpace=wrap;fontSize=10;fillColor=#f5f5f5;align=center;strokeColor=#666666;fontColor=#333333;spacingLeft=17;sketch=0;aspect=fixed;" parent="bsHtGkAG1uyYWepguyDH-576" vertex="1">
          <mxGeometry x="301.5399999999999" y="440.39" width="95" height="27.44" as="geometry" />
        </mxCell>
        <mxCell id="bsHtGkAG1uyYWepguyDH-624" value="" style="shape=image;html=1;verticalAlign=top;verticalLabelPosition=bottom;labelBackgroundColor=#ffffff;imageAspect=0;aspect=fixed;image=https://cdn0.iconfinder.com/data/icons/heroicons-ui/24/icon-currency-dollar-128.png;sketch=0;" parent="bsHtGkAG1uyYWepguyDH-576" vertex="1">
          <mxGeometry x="301.5399999999999" y="440.39" width="28.22" height="28.22" as="geometry" />
        </mxCell>
        <mxCell id="bsHtGkAG1uyYWepguyDH-625" value="Copiright by PietroAlex &amp; Alexdib_creator" style="shape=rect;strokeColor=none;whiteSpace=wrap;align=left;spacingLeft=16;fontColor=#666666;fontSize=14;sketch=0;" parent="bsHtGkAG1uyYWepguyDH-576" vertex="1">
          <mxGeometry y="633" width="430" height="17.39" as="geometry" />
        </mxCell>
        <mxCell id="bsHtGkAG1uyYWepguyDH-626" value="" style="dashed=0;align=center;fontSize=12;shape=rect;strokeColor=none;fillColor=#000000;resizeWidth=1;" parent="bsHtGkAG1uyYWepguyDH-576" vertex="1">
          <mxGeometry y="1" width="427.6111111111111" height="48" relative="1" as="geometry">
            <mxPoint y="-48" as="offset" />
          </mxGeometry>
        </mxCell>
        <mxCell id="bsHtGkAG1uyYWepguyDH-627" value="" style="dashed=0;html=1;shape=mxgraph.gmdl.back;strokeColor=#ffffff;fillColor=#000000;strokeWidth=2;" parent="bsHtGkAG1uyYWepguyDH-626" vertex="1">
          <mxGeometry x="0.25" y="0.5" width="14" height="14" relative="1" as="geometry">
            <mxPoint x="-7" y="-7" as="offset" />
          </mxGeometry>
        </mxCell>
        <mxCell id="bsHtGkAG1uyYWepguyDH-628" value="" style="shape=ellipse;strokeColor=#ffffff;fillColor=#000000;strokeWidth=2;" parent="bsHtGkAG1uyYWepguyDH-626" vertex="1">
          <mxGeometry x="0.5" y="0.5" width="14" height="14" relative="1" as="geometry">
            <mxPoint x="-7" y="-7" as="offset" />
          </mxGeometry>
        </mxCell>
        <mxCell id="bsHtGkAG1uyYWepguyDH-629" value="" style="shape=rect;strokeColor=#ffffff;fillColor=#000000;strokeWidth=2;" parent="bsHtGkAG1uyYWepguyDH-626" vertex="1">
          <mxGeometry x="0.75" y="0.5" width="14" height="14" relative="1" as="geometry">
            <mxPoint x="-7" y="-7" as="offset" />
          </mxGeometry>
        </mxCell>
        <mxCell id="bsHtGkAG1uyYWepguyDH-387" value="" style="perimeter=none;dashed=0;shape=rect;fillColor=#ffffff;strokeColor=#eeeeee;shadow=1;rounded=1;" parent="bsHtGkAG1uyYWepguyDH-576" vertex="1">
          <mxGeometry x="7.039999999999964" y="61" width="170" height="200" as="geometry" />
        </mxCell>
        <mxCell id="bsHtGkAG1uyYWepguyDH-388" value="Home" style="text;verticalAlign=middle;fontSize=15;spacing=16;resizeWidth=1;" parent="bsHtGkAG1uyYWepguyDH-387" vertex="1">
          <mxGeometry width="170" height="32" relative="1" as="geometry">
            <mxPoint y="10" as="offset" />
          </mxGeometry>
        </mxCell>
        <mxCell id="bsHtGkAG1uyYWepguyDH-389" value="Profile" style="text;verticalAlign=middle;fontSize=15;spacing=16;resizeWidth=1;" parent="bsHtGkAG1uyYWepguyDH-387" vertex="1">
          <mxGeometry width="170" height="32" relative="1" as="geometry">
            <mxPoint y="42" as="offset" />
          </mxGeometry>
        </mxCell>
        <mxCell id="bsHtGkAG1uyYWepguyDH-390" value="Gallery" style="text;verticalAlign=middle;fontSize=15;spacing=16;resizeWidth=1;fontColor=#000000;" parent="bsHtGkAG1uyYWepguyDH-387" vertex="1">
          <mxGeometry width="170" height="32" relative="1" as="geometry">
            <mxPoint y="74" as="offset" />
          </mxGeometry>
        </mxCell>
        <mxCell id="bsHtGkAG1uyYWepguyDH-391" value="" style="shape=line;strokeColor=#eeeeee;resizeWidth=1;" parent="bsHtGkAG1uyYWepguyDH-387" vertex="1">
          <mxGeometry width="170" height="10" relative="1" as="geometry">
            <mxPoint y="150" as="offset" />
          </mxGeometry>
        </mxCell>
        <mxCell id="bsHtGkAG1uyYWepguyDH-393" value="Notifications" style="text;verticalAlign=middle;fontSize=15;spacing=16;resizeWidth=1;" parent="bsHtGkAG1uyYWepguyDH-387" vertex="1">
          <mxGeometry width="170" height="32" relative="1" as="geometry">
            <mxPoint y="110" as="offset" />
          </mxGeometry>
        </mxCell>
        <mxCell id="bsHtGkAG1uyYWepguyDH-394" value="Log Out" style="text;verticalAlign=middle;fontSize=15;spacing=16;resizeWidth=1;" parent="bsHtGkAG1uyYWepguyDH-387" vertex="1">
          <mxGeometry width="170" height="32" relative="1" as="geometry">
            <mxPoint y="160" as="offset" />
          </mxGeometry>
        </mxCell>
        <mxCell id="bsHtGkAG1uyYWepguyDH-631" value="12:30" style="dashed=0;align=center;fontSize=12;shape=rect;align=right;fillColor=#0973AE;strokeColor=none;fontColor=#FFFFFF;spacingRight=4;spacingTop=1;fontStyle=0;fontSize=13;resizeWidth=1;" parent="1" vertex="1">
          <mxGeometry x="1161.19" y="170.00000000000023" width="427.6111111111111" height="24" as="geometry" />
        </mxCell>
        <mxCell id="bsHtGkAG1uyYWepguyDH-632" value="" style="dashed=0;html=1;shape=mxgraph.gmdl.top_bar;fillColor=#0973AE;strokeColor=none;" parent="bsHtGkAG1uyYWepguyDH-631" vertex="1">
          <mxGeometry x="1" y="0.5" width="46" height="14" relative="1" as="geometry">
            <mxPoint x="-92" y="-7" as="offset" />
          </mxGeometry>
        </mxCell>
        <mxCell id="bsHtGkAG1uyYWepguyDH-633" value="" style="dashed=0;align=center;fontSize=12;shape=rect;strokeColor=none;fillColor=#098DCA;resizeWidth=1;" parent="1" vertex="1">
          <mxGeometry x="1161.19" y="190.00000000000023" width="427.6111111111111" height="40" as="geometry" />
        </mxCell>
        <mxCell id="bsHtGkAG1uyYWepguyDH-634" value="" style="shape=image;html=1;verticalAlign=top;verticalLabelPosition=bottom;labelBackgroundColor=#ffffff;imageAspect=0;image=https://cdn1.iconfinder.com/data/icons/material-core/18/menu-128.png" parent="1" vertex="1">
          <mxGeometry x="1171.19" y="195.8599999999999" width="28.06" height="28.19" as="geometry" />
        </mxCell>
        <mxCell id="bsHtGkAG1uyYWepguyDH-635" value="1000" style="rounded=1;html=1;shadow=0;dashed=0;whiteSpace=wrap;fontSize=10;fillColor=#E6E6E6;align=center;strokeColor=#B3B3B3;fontColor=#333333;spacingLeft=17;" parent="1" vertex="1">
          <mxGeometry x="1495.6344444444444" y="194.13339563862928" width="83.61111111111111" height="29.919003115264797" as="geometry" />
        </mxCell>
        <mxCell id="bsHtGkAG1uyYWepguyDH-636" value="" style="shape=image;html=1;verticalAlign=top;verticalLabelPosition=bottom;labelBackgroundColor=#ffffff;imageAspect=0;aspect=fixed;image=https://cdn0.iconfinder.com/data/icons/heroicons-ui/24/icon-currency-dollar-128.png" parent="1" vertex="1">
          <mxGeometry x="1495.6344444444444" y="193.7129283489096" width="30.76947040498442" height="30.76947040498442" as="geometry" />
        </mxCell>
        <mxCell id="NtmgafUmDSAZVBFkPAuM-1" value="" style="dashed=0;align=center;fontSize=12;shape=rect;fillColor=#ffffff;strokeColor=none;" vertex="1" parent="1">
          <mxGeometry x="-1310" y="792" width="430" height="700" as="geometry" />
        </mxCell>
        <mxCell id="NtmgafUmDSAZVBFkPAuM-2" value="12:30" style="dashed=0;align=center;fontSize=12;shape=rect;align=right;fillColor=#0973AE;strokeColor=none;fontColor=#FFFFFF;spacingRight=4;spacingTop=1;fontStyle=0;fontSize=13;resizeWidth=1;" vertex="1" parent="NtmgafUmDSAZVBFkPAuM-1">
          <mxGeometry width="430" height="24" relative="1" as="geometry" />
        </mxCell>
        <mxCell id="NtmgafUmDSAZVBFkPAuM-3" value="" style="dashed=0;html=1;shape=mxgraph.gmdl.top_bar;fillColor=#0973AE;strokeColor=none;" vertex="1" parent="NtmgafUmDSAZVBFkPAuM-2">
          <mxGeometry x="1" y="0.5" width="46" height="14" relative="1" as="geometry">
            <mxPoint x="-92" y="-7" as="offset" />
          </mxGeometry>
        </mxCell>
        <mxCell id="NtmgafUmDSAZVBFkPAuM-4" value="" style="dashed=0;align=center;fontSize=12;shape=rect;strokeColor=none;fillColor=#098DCA;resizeWidth=1;" vertex="1" parent="NtmgafUmDSAZVBFkPAuM-1">
          <mxGeometry width="430" height="60" relative="1" as="geometry">
            <mxPoint y="24" as="offset" />
          </mxGeometry>
        </mxCell>
        <mxCell id="NtmgafUmDSAZVBFkPAuM-5" value="" style="dashed=0;align=center;fontSize=12;shape=rect;strokeColor=none;fillColor=#000000;resizeWidth=1;" vertex="1" parent="NtmgafUmDSAZVBFkPAuM-1">
          <mxGeometry y="1" width="430" height="48" relative="1" as="geometry">
            <mxPoint y="-48" as="offset" />
          </mxGeometry>
        </mxCell>
        <mxCell id="NtmgafUmDSAZVBFkPAuM-6" value="" style="dashed=0;html=1;shape=mxgraph.gmdl.back;strokeColor=#ffffff;fillColor=#000000;strokeWidth=2;" vertex="1" parent="NtmgafUmDSAZVBFkPAuM-5">
          <mxGeometry x="0.25" y="0.5" width="14" height="14" relative="1" as="geometry">
            <mxPoint x="-7" y="-7" as="offset" />
          </mxGeometry>
        </mxCell>
        <mxCell id="NtmgafUmDSAZVBFkPAuM-7" value="" style="shape=ellipse;strokeColor=#ffffff;fillColor=#000000;strokeWidth=2;" vertex="1" parent="NtmgafUmDSAZVBFkPAuM-5">
          <mxGeometry x="0.5" y="0.5" width="14" height="14" relative="1" as="geometry">
            <mxPoint x="-7" y="-7" as="offset" />
          </mxGeometry>
        </mxCell>
        <mxCell id="NtmgafUmDSAZVBFkPAuM-8" value="" style="shape=rect;strokeColor=#ffffff;fillColor=#000000;strokeWidth=2;" vertex="1" parent="NtmgafUmDSAZVBFkPAuM-5">
          <mxGeometry x="0.75" y="0.5" width="14" height="14" relative="1" as="geometry">
            <mxPoint x="-7" y="-7" as="offset" />
          </mxGeometry>
        </mxCell>
        <mxCell id="NtmgafUmDSAZVBFkPAuM-9" value="" style="sketch=0;outlineConnect=0;fontColor=#232F3E;gradientColor=none;fillColor=#D45B07;strokeColor=none;dashed=0;verticalLabelPosition=bottom;verticalAlign=top;align=center;html=1;fontSize=12;fontStyle=0;aspect=fixed;pointerEvents=1;shape=mxgraph.aws4.container_registry_image;" vertex="1" parent="NtmgafUmDSAZVBFkPAuM-1">
          <mxGeometry x="132.12290502793297" y="152.6479750778816" width="138" height="138" as="geometry" />
        </mxCell>
        <mxCell id="NtmgafUmDSAZVBFkPAuM-10" value="NFT SHOP" style="text;strokeColor=none;fillColor=none;html=1;fontSize=24;fontStyle=1;verticalAlign=middle;align=center;" vertex="1" parent="NtmgafUmDSAZVBFkPAuM-1">
          <mxGeometry x="141.40333333333308" y="29.997196261682177" width="119.44444444444444" height="43.613707165109034" as="geometry" />
        </mxCell>
        <mxCell id="NtmgafUmDSAZVBFkPAuM-11" value="" style="dashed=0;align=center;fontSize=12;shape=rect;fillColor=#ffffff;strokeColor=none;" vertex="1" parent="1">
          <mxGeometry x="-2150" y="770" width="430" height="700" as="geometry" />
        </mxCell>
        <mxCell id="NtmgafUmDSAZVBFkPAuM-12" value="12:30" style="dashed=0;align=center;fontSize=12;shape=rect;align=right;fillColor=#0973AE;strokeColor=none;fontColor=#FFFFFF;spacingRight=4;spacingTop=1;fontStyle=0;fontSize=13;resizeWidth=1;" vertex="1" parent="NtmgafUmDSAZVBFkPAuM-11">
          <mxGeometry width="430" height="24" relative="1" as="geometry" />
        </mxCell>
        <mxCell id="NtmgafUmDSAZVBFkPAuM-13" value="" style="dashed=0;html=1;shape=mxgraph.gmdl.top_bar;fillColor=#0973AE;strokeColor=none;" vertex="1" parent="NtmgafUmDSAZVBFkPAuM-12">
          <mxGeometry x="1" y="0.5" width="46" height="14" relative="1" as="geometry">
            <mxPoint x="-92" y="-7" as="offset" />
          </mxGeometry>
        </mxCell>
        <mxCell id="NtmgafUmDSAZVBFkPAuM-14" value="" style="dashed=0;align=center;fontSize=12;shape=rect;strokeColor=none;fillColor=#098DCA;resizeWidth=1;" vertex="1" parent="NtmgafUmDSAZVBFkPAuM-11">
          <mxGeometry width="430" height="60" relative="1" as="geometry">
            <mxPoint y="24" as="offset" />
          </mxGeometry>
        </mxCell>
        <mxCell id="NtmgafUmDSAZVBFkPAuM-15" value="" style="dashed=0;align=center;fontSize=12;shape=rect;strokeColor=none;fillColor=#000000;resizeWidth=1;" vertex="1" parent="NtmgafUmDSAZVBFkPAuM-11">
          <mxGeometry y="1" width="430" height="48" relative="1" as="geometry">
            <mxPoint y="-48" as="offset" />
          </mxGeometry>
        </mxCell>
        <mxCell id="NtmgafUmDSAZVBFkPAuM-16" value="" style="dashed=0;html=1;shape=mxgraph.gmdl.back;strokeColor=#ffffff;fillColor=#000000;strokeWidth=2;" vertex="1" parent="NtmgafUmDSAZVBFkPAuM-15">
          <mxGeometry x="0.25" y="0.5" width="14" height="14" relative="1" as="geometry">
            <mxPoint x="-7" y="-7" as="offset" />
          </mxGeometry>
        </mxCell>
        <mxCell id="NtmgafUmDSAZVBFkPAuM-17" value="" style="shape=ellipse;strokeColor=#ffffff;fillColor=#000000;strokeWidth=2;" vertex="1" parent="NtmgafUmDSAZVBFkPAuM-15">
          <mxGeometry x="0.5" y="0.5" width="14" height="14" relative="1" as="geometry">
            <mxPoint x="-7" y="-7" as="offset" />
          </mxGeometry>
        </mxCell>
        <mxCell id="NtmgafUmDSAZVBFkPAuM-18" value="" style="shape=rect;strokeColor=#ffffff;fillColor=#000000;strokeWidth=2;" vertex="1" parent="NtmgafUmDSAZVBFkPAuM-15">
          <mxGeometry x="0.75" y="0.5" width="14" height="14" relative="1" as="geometry">
            <mxPoint x="-7" y="-7" as="offset" />
          </mxGeometry>
        </mxCell>
        <mxCell id="NtmgafUmDSAZVBFkPAuM-19" value="" style="sketch=0;outlineConnect=0;fontColor=#232F3E;gradientColor=none;fillColor=#D45B07;strokeColor=none;dashed=0;verticalLabelPosition=bottom;verticalAlign=top;align=center;html=1;fontSize=12;fontStyle=0;aspect=fixed;pointerEvents=1;shape=mxgraph.aws4.container_registry_image;" vertex="1" parent="NtmgafUmDSAZVBFkPAuM-11">
          <mxGeometry x="132.12290502793297" y="152.6479750778816" width="138" height="138" as="geometry" />
        </mxCell>
        <mxCell id="NtmgafUmDSAZVBFkPAuM-20" value="NFT SHOP" style="text;strokeColor=none;fillColor=none;html=1;fontSize=24;fontStyle=1;verticalAlign=middle;align=center;" vertex="1" parent="NtmgafUmDSAZVBFkPAuM-11">
          <mxGeometry x="141.40333333333308" y="29.997196261682177" width="119.44444444444444" height="43.613707165109034" as="geometry" />
        </mxCell>
        <mxCell id="NtmgafUmDSAZVBFkPAuM-21" value="" style="dashed=0;align=center;fontSize=12;shape=rect;fillColor=#ffffff;strokeColor=none;" vertex="1" parent="1">
          <mxGeometry x="-2130" y="1700" width="430" height="700" as="geometry" />
        </mxCell>
        <mxCell id="NtmgafUmDSAZVBFkPAuM-22" value="12:30" style="dashed=0;align=center;fontSize=12;shape=rect;align=right;fillColor=#0973AE;strokeColor=none;fontColor=#FFFFFF;spacingRight=4;spacingTop=1;fontStyle=0;fontSize=13;resizeWidth=1;" vertex="1" parent="NtmgafUmDSAZVBFkPAuM-21">
          <mxGeometry width="430" height="24" relative="1" as="geometry" />
        </mxCell>
        <mxCell id="NtmgafUmDSAZVBFkPAuM-23" value="" style="dashed=0;html=1;shape=mxgraph.gmdl.top_bar;fillColor=#0973AE;strokeColor=none;" vertex="1" parent="NtmgafUmDSAZVBFkPAuM-22">
          <mxGeometry x="1" y="0.5" width="46" height="14" relative="1" as="geometry">
            <mxPoint x="-92" y="-7" as="offset" />
          </mxGeometry>
        </mxCell>
        <mxCell id="NtmgafUmDSAZVBFkPAuM-24" value="" style="dashed=0;align=center;fontSize=12;shape=rect;strokeColor=none;fillColor=#098DCA;resizeWidth=1;" vertex="1" parent="NtmgafUmDSAZVBFkPAuM-21">
          <mxGeometry width="430" height="60" relative="1" as="geometry">
            <mxPoint y="24" as="offset" />
          </mxGeometry>
        </mxCell>
        <mxCell id="NtmgafUmDSAZVBFkPAuM-25" value="" style="dashed=0;align=center;fontSize=12;shape=rect;strokeColor=none;fillColor=#000000;resizeWidth=1;" vertex="1" parent="NtmgafUmDSAZVBFkPAuM-21">
          <mxGeometry y="1" width="430" height="48" relative="1" as="geometry">
            <mxPoint y="-48" as="offset" />
          </mxGeometry>
        </mxCell>
        <mxCell id="NtmgafUmDSAZVBFkPAuM-26" value="" style="dashed=0;html=1;shape=mxgraph.gmdl.back;strokeColor=#ffffff;fillColor=#000000;strokeWidth=2;" vertex="1" parent="NtmgafUmDSAZVBFkPAuM-25">
          <mxGeometry x="0.25" y="0.5" width="14" height="14" relative="1" as="geometry">
            <mxPoint x="-7" y="-7" as="offset" />
          </mxGeometry>
        </mxCell>
        <mxCell id="NtmgafUmDSAZVBFkPAuM-27" value="" style="shape=ellipse;strokeColor=#ffffff;fillColor=#000000;strokeWidth=2;" vertex="1" parent="NtmgafUmDSAZVBFkPAuM-25">
          <mxGeometry x="0.5" y="0.5" width="14" height="14" relative="1" as="geometry">
            <mxPoint x="-7" y="-7" as="offset" />
          </mxGeometry>
        </mxCell>
        <mxCell id="NtmgafUmDSAZVBFkPAuM-28" value="" style="shape=rect;strokeColor=#ffffff;fillColor=#000000;strokeWidth=2;" vertex="1" parent="NtmgafUmDSAZVBFkPAuM-25">
          <mxGeometry x="0.75" y="0.5" width="14" height="14" relative="1" as="geometry">
            <mxPoint x="-7" y="-7" as="offset" />
          </mxGeometry>
        </mxCell>
        <mxCell id="NtmgafUmDSAZVBFkPAuM-29" value="" style="sketch=0;outlineConnect=0;fontColor=#232F3E;gradientColor=none;fillColor=#D45B07;strokeColor=none;dashed=0;verticalLabelPosition=bottom;verticalAlign=top;align=center;html=1;fontSize=12;fontStyle=0;aspect=fixed;pointerEvents=1;shape=mxgraph.aws4.container_registry_image;" vertex="1" parent="NtmgafUmDSAZVBFkPAuM-21">
          <mxGeometry x="132.12290502793297" y="152.6479750778816" width="138" height="138" as="geometry" />
        </mxCell>
        <mxCell id="NtmgafUmDSAZVBFkPAuM-30" value="NFT SHOP" style="text;strokeColor=none;fillColor=none;html=1;fontSize=24;fontStyle=1;verticalAlign=middle;align=center;" vertex="1" parent="NtmgafUmDSAZVBFkPAuM-21">
          <mxGeometry x="141.40333333333308" y="29.997196261682177" width="119.44444444444444" height="43.613707165109034" as="geometry" />
        </mxCell>
        <mxCell id="NtmgafUmDSAZVBFkPAuM-31" value="" style="shape=rect;fillColor=#eeeeee;strokeColor=none;sketch=0;aspect=fixed;" vertex="1" parent="1">
          <mxGeometry x="1728.5" y="680" width="121" height="180" as="geometry" />
        </mxCell>
        <mxCell id="NtmgafUmDSAZVBFkPAuM-32" value="" style="sketch=0;outlineConnect=0;fontColor=#232F3E;gradientColor=none;fillColor=#D45B07;strokeColor=none;dashed=0;verticalLabelPosition=bottom;verticalAlign=top;align=center;html=1;fontSize=12;fontStyle=0;aspect=fixed;pointerEvents=1;shape=mxgraph.aws4.container_registry_image;" vertex="1" parent="1">
          <mxGeometry x="1749" y="691" width="80" height="80" as="geometry" />
        </mxCell>
        <mxCell id="NtmgafUmDSAZVBFkPAuM-33" value="" style="dashed=0;shape=rect;fillColor=#ffffff;strokeColor=none;sketch=0;aspect=fixed;" vertex="1" parent="1">
          <mxGeometry x="1733.5" y="782" width="111" height="28" as="geometry" />
        </mxCell>
        <mxCell id="NtmgafUmDSAZVBFkPAuM-34" value="Heist" style="text;strokeColor=none;fillColor=none;html=1;fontSize=24;fontStyle=1;verticalAlign=middle;align=center;sketch=0;aspect=fixed;" vertex="1" parent="1">
          <mxGeometry x="1725" y="787" width="100" height="18" as="geometry" />
        </mxCell>
        <mxCell id="NtmgafUmDSAZVBFkPAuM-35" value="1000" style="rounded=1;html=1;shadow=0;dashed=0;whiteSpace=wrap;fontSize=10;fillColor=#f5f5f5;align=center;strokeColor=#666666;fontColor=#333333;spacingLeft=17;sketch=0;aspect=fixed;" vertex="1" parent="1">
          <mxGeometry x="1740" y="820.39" width="95" height="27.44" as="geometry" />
        </mxCell>
      </root>
    </mxGraphModel>
  </diagram>
</mxfile>
